<svg xmlns="http://www.w3.org/2000/svg" xmlns:xlink="http://www.w3.org/1999/xlink" width="180" zoomAndPan="magnify" viewBox="0 0 135 135.000003" height="180" preserveAspectRatio="xMidYMid meet" version="1.0"><defs><g/></defs><g fill="#ff5757" fill-opacity="1"><g transform="translate(6.606018, 59.237434)"><g><path d="M 24.703125 0 C 24.703125 -1.269531 24.238281 -1.992188 23.3125 -2.171875 C 23.019531 -2.222656 22.734375 -2.25 22.453125 -2.25 L 17.859375 -2.25 L 17.859375 -49.75 L 24.703125 -49.75 L 24.703125 -52 L 3.46875 -52 L 3.46875 -49.75 L 10.40625 -49.75 L 10.40625 -2.25 L 3.46875 -2.25 L 3.46875 0 Z M 24.703125 0 "/></g></g></g><g fill="#cb6ce6" fill-opacity="1"><g transform="translate(33.088419, 59.237434)"><g><path d="M 36.578125 0 C 36.578125 -1.269531 36.113281 -1.992188 35.1875 -2.171875 C 34.894531 -2.222656 34.609375 -2.25 34.328125 -2.25 L 28.421875 -2.25 L 28.421875 -49.75 L 33.453125 -49.75 C 38.128906 -49.75 41.25 -46.914062 42.8125 -41.25 C 42.8125 -41.019531 42.84375 -40.847656 42.90625 -40.734375 L 44.28125 -34.921875 L 46.71875 -34.921875 L 46.28125 -52 L 3.46875 -52 L 3.03125 -34.921875 L 5.453125 -34.921875 L 6.84375 -40.734375 C 8.695312 -46.398438 11.847656 -49.40625 16.296875 -49.75 L 20.96875 -49.75 L 20.96875 -2.25 L 12.734375 -2.25 L 12.734375 0 Z M 36.578125 0 "/></g></g></g><g fill="#0d6895" fill-opacity="1"><g transform="translate(15.556732, 103.590296)"><g><path d="M 36 -27.65625 L 28.625 -27.65625 L 18.671875 -5.109375 L 7.96875 -27.65625 L 1.390625 -27.65625 L 1.390625 -26.453125 L 5.078125 -26.453125 L 5.078125 -1.203125 L 1.390625 -1.203125 L 1.390625 0 L 10.609375 0 C 10.609375 -0.675781 10.359375 -1.0625 9.859375 -1.15625 C 9.710938 -1.1875 9.5625 -1.203125 9.40625 -1.203125 L 6.921875 -1.203125 L 6.921875 -21.015625 L 17.015625 0.234375 L 17.984375 0.234375 L 28.625 -23.515625 L 28.625 -1.203125 L 24.9375 -1.203125 L 24.9375 0 L 36 0 C 36 -0.675781 35.753906 -1.0625 35.265625 -1.15625 C 35.109375 -1.1875 34.953125 -1.203125 34.796875 -1.203125 L 32.3125 -1.203125 L 32.3125 -26.453125 L 36 -26.453125 Z M 36 -27.65625 "/></g></g><g transform="translate(52.94552, 103.590296)"><g><path d="M 18.03125 0.46875 C 20.394531 0.46875 21.695312 -0.960938 21.9375 -3.828125 C 21.96875 -4.015625 21.984375 -4.179688 21.984375 -4.328125 L 20.796875 -4.375 C 20.578125 -2.132812 19.972656 -1 18.984375 -0.96875 C 18.191406 -1.03125 17.78125 -1.828125 17.75 -3.359375 L 17.75 -13.09375 C 17.75 -17.488281 15.550781 -19.804688 11.15625 -20.046875 C 10.875 -20.046875 10.597656 -20.046875 10.328125 -20.046875 C 6.878906 -20.046875 4.570312 -19.25 3.40625 -17.65625 C 3.039062 -17.132812 2.859375 -16.613281 2.859375 -16.09375 C 2.859375 -15.132812 3.300781 -14.578125 4.1875 -14.421875 C 4.34375 -14.390625 4.5 -14.375 4.65625 -14.375 C 5.363281 -14.375 5.882812 -14.820312 6.21875 -15.71875 C 6.65625 -16.851562 6.945312 -17.53125 7.09375 -17.75 C 7.675781 -18.519531 8.582031 -18.90625 9.8125 -18.90625 C 12.707031 -18.71875 14.203125 -17.132812 14.296875 -14.15625 L 14.296875 -11.25 C 7.066406 -11.25 2.929688 -9.742188 1.890625 -6.734375 C 1.703125 -6.148438 1.609375 -5.519531 1.609375 -4.84375 C 1.609375 -2.507812 2.640625 -0.910156 4.703125 -0.046875 C 5.535156 0.296875 6.410156 0.46875 7.328125 0.46875 C 9.566406 0.46875 11.457031 -0.300781 13 -1.84375 C 13.550781 -2.425781 13.96875 -3.039062 14.25 -3.6875 C 14.613281 -0.945312 15.875 0.4375 18.03125 0.46875 Z M 8.84375 -1.390625 C 6.96875 -1.390625 5.816406 -2.320312 5.390625 -4.1875 C 5.296875 -4.625 5.25 -5.101562 5.25 -5.625 C 5.25 -7.6875 6.429688 -8.992188 8.796875 -9.546875 C 10.054688 -9.816406 11.890625 -9.96875 14.296875 -10 L 14.296875 -6.3125 C 13.828125 -4.195312 12.703125 -2.707031 10.921875 -1.84375 C 10.210938 -1.539062 9.519531 -1.390625 8.84375 -1.390625 Z M 8.84375 -1.390625 "/></g></g><g transform="translate(75.166724, 103.590296)"><g><path d="M 6 -12.765625 C 6.050781 -16.828125 7.585938 -18.875 10.609375 -18.90625 C 13.617188 -18.84375 15.140625 -16.796875 15.171875 -12.765625 C 15.109375 -8.585938 13.585938 -6.484375 10.609375 -6.453125 C 7.554688 -6.515625 6.019531 -8.617188 6 -12.765625 Z M 10.640625 -20.046875 C 7.878906 -20.046875 5.6875 -19.15625 4.0625 -17.375 C 2.894531 -16.050781 2.3125 -14.5 2.3125 -12.71875 C 2.3125 -10.382812 3.445312 -8.453125 5.71875 -6.921875 C 5.925781 -6.765625 6.140625 -6.625 6.359375 -6.5 C 4.390625 -6.5 3.160156 -5.65625 2.671875 -3.96875 C 2.578125 -3.5625 2.53125 -3.160156 2.53125 -2.765625 C 2.5625 -1.140625 3.222656 0.0703125 4.515625 0.875 C 3.503906 1.945312 3 3.039062 3 4.15625 C 3 5.84375 4 7.097656 6 7.921875 C 7.25 8.484375 8.796875 8.765625 10.640625 8.765625 C 15.316406 8.765625 18.40625 7.625 19.90625 5.34375 C 20.40625 4.570312 20.65625 3.757812 20.65625 2.90625 C 20.65625 0.257812 19.132812 -1.257812 16.09375 -1.65625 C 15.6875 -1.71875 15.269531 -1.75 14.84375 -1.75 L 6.453125 -1.9375 C 5.035156 -2.03125 4.3125 -2.644531 4.28125 -3.78125 C 4.28125 -4.582031 4.789062 -5.085938 5.8125 -5.296875 C 6.019531 -5.328125 6.25 -5.34375 6.5 -5.34375 L 10.5625 -5.296875 C 13.289062 -5.296875 15.472656 -6.21875 17.109375 -8.0625 C 18.273438 -9.382812 18.859375 -10.953125 18.859375 -12.765625 C 18.828125 -15.066406 17.9375 -16.910156 16.1875 -18.296875 C 16.457031 -19.285156 16.976562 -19.867188 17.75 -20.046875 C 17.875 -20.078125 17.992188 -20.09375 18.109375 -20.09375 C 18.546875 -20.09375 19.007812 -19.863281 19.5 -19.40625 C 19.832031 -19.101562 20.140625 -18.953125 20.421875 -18.953125 C 21.191406 -19.128906 21.632812 -19.617188 21.75 -20.421875 C 21.75 -21.367188 21.304688 -22.015625 20.421875 -22.359375 C 20.078125 -22.484375 19.738281 -22.546875 19.40625 -22.546875 C 17.957031 -22.546875 16.789062 -21.898438 15.90625 -20.609375 C 15.5625 -20.117188 15.300781 -19.578125 15.125 -18.984375 C 13.738281 -19.691406 12.242188 -20.046875 10.640625 -20.046875 Z M 10.640625 7.5625 C 7.597656 7.5625 5.679688 6.757812 4.890625 5.15625 C 4.671875 4.726562 4.5625 4.300781 4.5625 3.875 C 4.59375 3.039062 4.960938 2.210938 5.671875 1.390625 C 6.285156 1.503906 6.789062 1.5625 7.1875 1.5625 L 14.296875 1.65625 C 16.597656 1.6875 17.929688 2.210938 18.296875 3.234375 C 18.390625 3.472656 18.4375 3.78125 18.4375 4.15625 C 18.4375 5.5 17.175781 6.476562 14.65625 7.09375 C 13.425781 7.40625 12.085938 7.5625 10.640625 7.5625 Z M 10.640625 7.5625 "/></g></g><g transform="translate(97.341825, 103.590296)"><g><path d="M 10.828125 -1.15625 L 8.53125 -1.15625 L 8.53125 -19.59375 L 1.390625 -19.59375 L 1.390625 -18.4375 L 5.078125 -18.4375 L 5.078125 -3.921875 C 5.078125 -2.503906 4.597656 -1.644531 3.640625 -1.34375 C 3.179688 -1.21875 2.429688 -1.15625 1.390625 -1.15625 L 1.390625 0 L 11.984375 0 C 11.984375 -0.675781 11.753906 -1.046875 11.296875 -1.109375 C 11.140625 -1.140625 10.984375 -1.15625 10.828125 -1.15625 Z M 9.078125 -26.328125 C 9.078125 -27.398438 8.601562 -28.164062 7.65625 -28.625 C 7.28125 -28.78125 6.925781 -28.859375 6.59375 -28.859375 C 5.519531 -28.859375 4.75 -28.363281 4.28125 -27.375 C 4.132812 -27.039062 4.0625 -26.691406 4.0625 -26.328125 C 4.0625 -25.179688 4.566406 -24.394531 5.578125 -23.96875 C 5.910156 -23.84375 6.25 -23.78125 6.59375 -23.78125 C 7.664062 -23.78125 8.414062 -24.273438 8.84375 -25.265625 C 9 -25.597656 9.078125 -25.953125 9.078125 -26.328125 Z M 9.078125 -26.328125 "/></g></g><g transform="translate(110.711429, 103.590296)"><g><path d="M 1.84375 -9.59375 C 1.84375 -5.875 3.210938 -3.09375 5.953125 -1.25 C 7.640625 -0.101562 9.554688 0.46875 11.703125 0.46875 C 14.898438 0.46875 17.316406 -0.65625 18.953125 -2.90625 C 19.316406 -3.425781 19.609375 -3.945312 19.828125 -4.46875 L 18.625 -4.890625 C 17.488281 -2.460938 15.613281 -1.125 13 -0.875 C 12.75 -0.84375 12.503906 -0.828125 12.265625 -0.828125 C 10.078125 -0.828125 8.367188 -1.921875 7.140625 -4.109375 C 6.222656 -5.765625 5.765625 -7.726562 5.765625 -10 C 5.765625 -14.03125 6.820312 -16.71875 8.9375 -18.0625 C 9.832031 -18.625 10.816406 -18.90625 11.890625 -18.90625 C 13.546875 -18.90625 14.546875 -18.257812 14.890625 -16.96875 C 14.953125 -16.71875 15.03125 -16.332031 15.125 -15.8125 C 15.300781 -14.582031 15.640625 -13.8125 16.140625 -13.5 C 16.441406 -13.351562 16.773438 -13.265625 17.140625 -13.234375 C 18.191406 -13.171875 18.851562 -13.597656 19.125 -14.515625 C 19.1875 -14.734375 19.21875 -14.9375 19.21875 -15.125 C 19.21875 -16.6875 18.21875 -17.972656 16.21875 -18.984375 C 14.8125 -19.691406 13.273438 -20.046875 11.609375 -20.046875 C 7.492188 -20.046875 4.625 -18.375 3 -15.03125 C 2.226562 -13.425781 1.84375 -11.613281 1.84375 -9.59375 Z M 1.84375 -9.59375 "/></g></g></g></svg>