<?xml version="1.0" standalone="no"?>
<!DOCTYPE svg PUBLIC "-//W3C//DTD SVG 20010904//EN"
 "http://www.w3.org/TR/2001/REC-SVG-20010904/DTD/svg10.dtd">
<svg version="1.0" xmlns="http://www.w3.org/2000/svg"
 width="512.000000pt" height="512.000000pt" viewBox="0 0 512.000000 512.000000"
 preserveAspectRatio="xMidYMid meet">
<metadata>
Created by potrace 1.14, written by Peter Selinger 2001-2017
</metadata>
<g transform="translate(0.000000,512.000000) scale(0.100000,-0.100000)"
fill="#000000" stroke="none">
<path d="M2454 5024 c2 -6 -2 -11 -10 -11 -7 0 -11 5 -7 10 3 5 -10 6 -33 3
-22 -4 -65 -8 -96 -9 -32 -1 -58 -6 -58 -11 0 -4 -8 -2 -17 5 -11 10 -14 10
-9 2 8 -14 7 -14 -70 -17 -29 -1 -58 -6 -65 -12 -8 -6 -25 -10 -39 -9 -14 0
-31 -6 -38 -15 -12 -13 -12 -13 -6 0 6 12 5 13 -7 4 -8 -6 -27 -11 -43 -12
-17 -1 -32 -6 -35 -10 -3 -4 -13 -7 -21 -7 -8 0 -18 -4 -22 -10 -5 -6 -8 -4
-8 5 0 12 -2 12 -9 2 -4 -7 -20 -14 -35 -16 -16 -2 -31 -7 -34 -12 -4 -6 -18
-11 -31 -11 -13 -1 -27 -7 -31 -13 -4 -7 -10 -11 -14 -11 -25 4 -47 -1 -58
-12 -7 -8 -18 -12 -24 -10 -6 2 -17 -3 -24 -12 -15 -18 -35 -21 -24 -3 4 6 -4
3 -18 -8 -14 -10 -23 -23 -20 -29 3 -5 -2 -4 -11 4 -14 11 -18 11 -23 -2 -3
-9 -12 -13 -20 -10 -8 3 -14 0 -14 -6 0 -6 -9 -11 -21 -11 -11 0 -17 -4 -14
-10 3 -5 -2 -10 -12 -10 -11 0 -24 -5 -31 -12 -7 -7 -12 -9 -12 -5 0 3 -12 -5
-26 -18 -15 -14 -30 -22 -35 -19 -5 3 -9 0 -9 -6 0 -6 -4 -9 -9 -5 -6 3 -14
-2 -19 -11 -5 -9 -12 -16 -15 -16 -22 0 -47 -12 -47 -24 0 -8 -8 -11 -20 -9
-11 2 -19 1 -16 -3 2 -4 -2 -13 -10 -20 -8 -7 -14 -10 -14 -7 0 6 -17 -7 -54
-42 -13 -12 -27 -19 -30 -16 -3 4 -6 1 -6 -6 0 -8 -8 -11 -19 -8 -12 3 -18 -1
-17 -12 0 -9 -5 -15 -11 -14 -7 2 -13 -5 -13 -14 0 -9 -3 -14 -6 -11 -3 3 -21
-10 -40 -28 -19 -19 -39 -32 -44 -29 -9 6 -14 -8 -11 -28 1 -5 -2 -6 -7 -3
-13 8 -52 -23 -52 -40 0 -8 -4 -12 -10 -9 -9 6 -14 -8 -11 -28 1 -5 -3 -6 -9
-2 -13 8 -43 -22 -35 -35 4 -6 3 -10 -2 -9 -19 3 -34 -2 -28 -10 3 -5 -4 -13
-16 -16 -13 -4 -18 -12 -15 -21 3 -8 2 -13 -3 -10 -5 3 -21 -12 -35 -35 -15
-22 -31 -37 -36 -34 -6 4 -7 -1 -3 -11 4 -12 3 -15 -5 -10 -11 6 -17 -5 -13
-27 0 -4 -5 -6 -11 -5 -7 2 -12 -3 -10 -10 1 -8 -2 -11 -8 -7 -7 4 -14 -2 -17
-14 -3 -12 -10 -21 -15 -21 -5 0 -7 -4 -4 -8 3 -5 -4 -14 -14 -22 -10 -8 -17
-17 -14 -22 3 -4 1 -8 -4 -8 -5 0 -12 -9 -15 -21 -4 -13 -10 -18 -18 -14 -7 5
-10 3 -7 -6 3 -8 -4 -22 -15 -31 -11 -10 -16 -18 -12 -18 5 0 0 -7 -11 -16
-10 -8 -12 -13 -4 -9 8 4 6 -1 -4 -9 -11 -9 -17 -16 -13 -16 4 0 3 -9 -3 -20
-6 -12 -16 -18 -23 -14 -9 5 -9 4 0 -6 10 -11 8 -17 -8 -31 -12 -10 -18 -23
-14 -28 3 -6 1 -11 -5 -11 -6 0 -8 -4 -5 -10 3 -5 0 -10 -8 -10 -10 0 -13 -7
-10 -19 2 -10 -3 -25 -12 -35 -9 -9 -13 -16 -9 -16 4 0 -3 -11 -16 -25 -13
-14 -18 -25 -11 -25 9 0 7 -5 -3 -16 -9 -8 -21 -25 -27 -36 -9 -16 -8 -19 3
-12 10 6 11 5 1 -8 -7 -8 -9 -19 -5 -23 4 -5 2 -5 -5 -1 -6 3 -14 2 -18 -4 -3
-5 0 -10 7 -10 9 0 10 -2 2 -8 -15 -9 -34 -78 -26 -88 4 -4 0 -5 -10 -1 -11 4
-15 1 -13 -11 1 -9 -3 -23 -9 -31 -8 -11 -8 -13 1 -7 9 5 11 2 7 -8 -3 -9 -9
-14 -13 -11 -4 2 -7 -12 -6 -31 0 -23 -3 -33 -11 -30 -7 3 -11 -3 -9 -12 1 -9
-3 -23 -9 -31 -8 -11 -8 -13 1 -8 7 5 9 0 6 -13 -3 -11 -8 -18 -12 -16 -4 3
-6 -10 -6 -27 2 -38 -4 -59 -15 -52 -4 3 -7 -12 -5 -33 1 -20 -3 -41 -9 -45
-8 -6 -7 -10 2 -14 9 -3 7 -10 -9 -24 -12 -10 -18 -19 -12 -19 11 0 11 -49 0
-67 -4 -6 -1 -14 5 -16 10 -4 10 -6 0 -6 -10 -1 -10 -6 -1 -23 9 -17 9 -20 -3
-16 -11 5 -14 -5 -13 -41 0 -25 -3 -61 -6 -78 -4 -18 -3 -33 1 -33 5 0 5 -13
0 -29 -5 -20 -5 -31 2 -33 8 -3 7 -11 -1 -25 -8 -16 -8 -24 0 -29 8 -4 7 -9
-2 -15 -10 -6 -10 -9 -2 -9 7 0 10 -6 7 -14 -3 -8 0 -17 6 -21 9 -6 9 -10 -1
-16 -11 -7 -11 -9 -1 -9 10 0 10 -5 2 -20 -12 -23 -11 -108 2 -116 4 -3 3 -14
-2 -24 -7 -14 -6 -23 4 -32 9 -9 11 -21 5 -40 -4 -16 -3 -30 2 -34 5 -3 7 -16
5 -30 -3 -13 0 -24 5 -24 6 0 8 -4 4 -9 -3 -5 -1 -12 4 -15 5 -3 7 -15 4 -25
-3 -10 1 -29 7 -41 8 -15 8 -20 1 -16 -7 5 -9 1 -5 -8 3 -9 11 -16 18 -16 6 0
4 -5 -4 -10 -8 -5 -10 -10 -3 -10 6 0 10 -13 9 -29 -1 -16 3 -29 8 -28 6 1 11
-13 10 -31 0 -22 4 -32 15 -32 14 0 14 -1 1 -10 -11 -7 -11 -10 -2 -10 7 0 10
-4 7 -10 -3 -5 1 -25 10 -44 9 -18 17 -43 18 -55 1 -11 5 -21 9 -21 4 0 7 -6
5 -12 -1 -7 3 -12 9 -11 6 1 11 -4 11 -12 0 -8 -5 -11 -11 -8 -6 4 -5 0 1 -9
7 -8 10 -18 6 -21 -3 -4 2 -7 13 -7 16 0 17 -2 4 -10 -11 -7 -11 -10 -2 -10 7
0 11 -4 7 -9 -3 -5 1 -15 8 -23 8 -7 13 -21 11 -30 -1 -9 5 -19 13 -22 9 -4
13 -14 10 -26 -3 -11 -1 -17 4 -14 5 3 12 -8 15 -25 4 -16 15 -39 26 -50 10
-12 16 -26 13 -31 -3 -5 3 -15 13 -21 13 -8 17 -19 14 -32 -3 -14 -1 -18 6
-13 7 4 12 1 12 -8 0 -8 4 -16 9 -18 5 -2 11 -12 13 -23 1 -11 13 -30 25 -41
12 -12 19 -25 16 -28 -4 -3 -1 -6 5 -6 7 0 12 -6 12 -13 0 -7 8 -22 18 -33 10
-10 19 -23 19 -29 1 -5 10 -12 20 -16 13 -6 14 -8 3 -9 -12 0 -11 -3 3 -11 9
-6 16 -13 13 -17 -4 -7 17 -30 31 -35 5 -1 7 -5 6 -9 -2 -5 2 -8 8 -8 5 0 7
-4 4 -10 -3 -5 2 -10 11 -10 10 0 15 -3 11 -6 -3 -3 3 -15 13 -27 11 -11 17
-24 14 -28 -3 -5 2 -6 11 -3 9 4 15 2 13 -4 -2 -6 6 -18 17 -27 11 -9 14 -13
6 -9 -9 5 -12 3 -7 -4 4 -7 16 -12 26 -12 14 0 18 -5 13 -17 -4 -10 -2 -14 5
-9 6 3 13 -3 17 -14 3 -11 9 -19 13 -17 4 1 8 -2 9 -7 0 -5 8 -13 17 -18 9 -5
13 -14 10 -20 -4 -7 -2 -8 4 -4 7 4 12 3 12 -3 0 -5 8 -12 18 -15 11 -4 25
-17 32 -31 7 -13 16 -24 19 -23 20 2 31 -3 26 -12 -3 -6 -1 -10 5 -10 6 0 8
-5 4 -12 -4 -6 -3 -8 3 -5 12 7 66 -27 56 -36 -3 -4 1 -7 10 -7 9 0 21 -9 27
-20 6 -11 15 -20 21 -20 10 0 13 -2 72 -51 22 -18 43 -29 53 -25 8 3 13 2 10
-2 -6 -10 30 -43 38 -35 3 4 6 -2 6 -12 0 -14 3 -15 14 -6 11 9 15 7 19 -10 3
-12 10 -18 16 -14 6 3 11 2 11 -4 0 -5 14 -12 30 -16 17 -4 30 -11 30 -16 0
-5 9 -9 19 -9 11 0 22 -4 25 -9 3 -5 22 -18 42 -30 19 -12 32 -16 28 -10 -4 8
0 8 15 0 11 -7 21 -17 21 -24 0 -8 3 -8 9 1 6 11 10 10 15 -3 4 -10 12 -15 21
-11 9 3 18 -1 22 -9 3 -10 12 -13 25 -9 13 4 18 2 14 -4 -7 -11 21 -25 35 -16
5 3 9 0 9 -6 0 -6 4 -9 9 -5 5 3 12 1 16 -5 4 -6 11 -8 16 -5 5 4 16 -1 25 -9
9 -9 20 -14 25 -11 5 4 9 0 9 -7 0 -9 3 -9 10 2 8 13 10 13 10 -2 0 -11 5 -15
15 -12 8 3 21 -1 30 -9 9 -10 26 -14 45 -11 16 3 30 1 30 -4 0 -8 7 -10 48
-13 9 -1 22 -5 28 -10 5 -5 28 -11 51 -13 22 -3 51 -9 64 -14 13 -4 33 -8 44
-8 11 1 23 -3 27 -9 5 -6 8 -5 8 3 0 10 5 10 20 2 11 -6 26 -8 32 -4 6 4 8 3
5 -3 -4 -6 0 -14 9 -17 8 -3 13 -2 10 3 -6 9 81 7 91 -3 3 -3 12 -1 19 5 8 7
14 7 19 -1 3 -5 11 -10 16 -10 6 0 8 4 5 8 -3 5 1 9 9 9 8 0 15 -4 15 -9 0 -5
21 -8 46 -7 31 2 48 -2 55 -12 5 -8 9 -9 9 -3 0 7 16 14 35 16 19 2 35 0 35
-4 0 -4 5 -8 11 -8 5 0 7 5 3 11 -4 8 -1 8 12 1 11 -5 27 -8 36 -7 9 2 35 6
58 9 23 3 45 8 51 11 5 4 9 1 9 -6 0 -7 4 -8 13 -2 6 5 27 8 45 7 17 -1 30 1
28 5 -3 4 5 7 17 6 12 -1 25 3 29 9 5 7 8 7 8 -2 0 -7 4 -10 10 -7 20 12 50
14 50 3 0 -7 7 -3 16 8 8 10 13 13 9 7 -8 -17 0 -16 34 2 16 8 41 12 55 9 17
-3 25 -1 22 5 -4 5 -2 12 4 16 5 3 10 1 10 -5 0 -7 5 -8 13 -3 6 4 22 8 35 8
13 0 27 7 32 15 7 11 10 12 10 2 0 -10 4 -10 16 2 18 19 28 21 18 4 -5 -8 -2
-9 10 -5 10 4 20 7 22 7 3 0 2 4 -1 10 -3 6 1 7 9 4 9 -3 16 -1 16 5 0 6 6 8
14 5 8 -3 17 0 21 5 3 6 11 9 16 6 5 -4 9 -1 9 6 0 8 4 8 15 -1 13 -11 14 -10
10 2 -5 12 0 15 19 13 14 -2 26 1 26 7 0 6 7 7 16 4 10 -4 13 -2 8 6 -5 8 -2
9 9 5 10 -3 17 -2 17 4 0 6 5 7 10 4 6 -3 10 -1 10 4 0 6 5 11 11 11 5 0 7 -6
3 -12 -4 -7 3 -3 15 9 12 13 29 23 37 23 9 0 29 9 45 21 16 11 33 17 39 14 5
-3 10 -2 10 3 0 6 12 15 28 21 15 6 43 20 62 31 69 41 75 44 83 42 4 -1 7 3 7
8 0 6 11 15 25 20 14 5 25 14 25 20 0 6 4 9 9 5 6 -3 14 3 20 12 6 10 11 14
11 10 0 -5 7 -2 15 5 34 31 43 36 49 31 3 -4 6 2 6 12 0 14 3 15 15 5 13 -11
14 -10 9 5 -5 13 -4 16 4 11 7 -4 12 -2 12 5 0 7 2 10 5 7 3 -3 21 10 41 28
19 19 39 34 45 34 5 0 7 4 4 10 -3 5 -1 10 5 10 16 0 40 26 32 35 -4 4 -2 6 3
5 21 -5 36 0 30 10 -6 9 8 14 20 8 8 -5 33 37 28 46 -4 5 -1 6 5 2 7 -4 12 -2
12 4 0 6 4 9 9 6 5 -3 11 4 14 15 3 12 10 18 16 14 6 -3 11 -1 11 4 0 16 37
50 46 43 4 -4 5 -2 1 3 -3 6 1 19 9 30 8 10 14 15 14 9 0 -5 9 6 20 24 12 20
25 30 32 26 7 -4 8 -3 4 4 -4 7 -2 12 4 12 6 0 8 4 5 10 -3 5 1 10 10 10 9 0
13 4 10 10 -3 5 -1 10 6 10 7 0 10 3 6 6 -3 3 5 16 19 29 13 12 24 27 24 34 0
6 5 11 10 11 6 0 10 5 10 10 0 12 15 32 43 58 9 9 17 22 17 29 0 7 4 13 8 13
5 0 14 16 22 35 8 19 17 35 22 35 4 0 8 7 8 15 0 8 5 15 11 15 6 0 9 5 7 12
-2 6 4 20 14 30 10 10 16 24 12 30 -4 7 -3 8 4 4 7 -4 13 -1 13 6 3 36 20 78
31 78 5 0 6 5 3 10 -3 6 1 10 9 10 9 0 15 3 15 8 -4 25 2 42 14 36 6 -4 9 -4
5 0 -9 10 11 66 24 66 5 0 6 5 3 10 -4 6 -12 8 -18 5 -7 -3 -2 2 11 11 12 9
22 25 22 35 0 10 5 21 11 25 8 4 7 9 -2 15 -11 7 -10 9 5 9 12 0 16 5 13 15
-4 8 -2 17 4 20 5 4 7 11 4 16 -4 5 -2 9 4 9 5 0 8 9 6 20 -2 11 0 20 4 20 5
0 12 20 16 45 3 25 10 43 14 41 4 -3 7 5 6 17 -1 12 2 28 8 35 5 6 6 12 2 12
-4 0 -3 6 2 12 6 7 9 22 7 33 -1 10 2 25 8 32 8 10 7 13 -3 13 -12 0 -12 2 0
9 8 5 15 29 16 56 2 26 7 50 12 54 5 3 9 30 8 58 0 29 5 53 10 53 6 0 3 5 -5
10 -8 5 -10 10 -3 10 6 0 9 9 6 20 -3 11 0 20 6 20 6 0 11 5 11 11 0 5 -4 8
-8 5 -10 -6 -8 42 3 51 4 5 5 2 0 -6 -5 -10 -4 -12 3 -7 7 4 9 14 4 24 -9 21
-9 43 1 60 5 6 5 12 0 12 -4 0 -7 27 -6 60 1 33 -3 60 -8 60 -6 0 -8 4 -4 9 3
5 1 13 -5 16 -8 5 -8 11 -1 19 6 7 8 16 4 19 -3 4 -1 7 6 7 9 0 9 5 0 21 -8
16 -8 20 0 14 8 -4 10 3 5 27 -3 18 -7 39 -7 46 0 6 -5 12 -10 12 -5 0 -4 6 2
13 6 8 8 16 5 19 -3 3 -7 32 -9 64 -2 33 -4 63 -4 67 -1 5 -5 6 -9 3 -4 -2 -7
15 -7 40 1 24 -1 44 -4 44 -3 0 -7 10 -8 23 -3 44 -12 80 -20 86 -5 3 -10 22
-12 41 -2 19 -8 38 -13 41 -6 4 -7 12 -4 18 4 6 1 11 -6 11 -11 0 -11 2 0 9
11 7 11 11 -1 22 -7 8 -13 25 -12 38 1 12 -4 25 -11 28 -7 2 -15 11 -18 19 -3
8 -1 12 4 9 6 -3 7 1 4 9 -3 9 -9 14 -14 11 -4 -2 -7 9 -8 25 0 16 -8 40 -17
53 -13 20 -13 26 -3 30 8 4 7 6 -4 6 -11 1 -18 9 -18 21 0 11 -4 20 -10 20 -5
0 -10 11 -10 25 0 14 -4 25 -8 25 -4 0 -16 20 -26 45 -11 25 -23 45 -28 45 -5
0 -7 4 -4 9 7 11 -19 63 -27 54 -4 -3 -7 1 -7 10 0 9 -5 17 -12 17 -6 0 -8 3
-5 7 4 3 -4 21 -18 39 -14 18 -25 37 -25 43 0 6 -4 11 -10 11 -5 0 -10 9 -10
20 0 10 -8 24 -19 29 -10 6 -22 22 -25 36 -4 14 -14 25 -24 26 -10 0 -12 3 -5
6 8 3 5 12 -10 27 -12 13 -25 21 -29 19 -7 -4 -12 20 -9 40 1 5 -2 6 -6 4 -5
-3 -17 7 -28 21 -11 14 -35 40 -52 57 -18 18 -33 36 -33 39 0 4 -28 34 -62 67
-35 33 -62 64 -60 70 1 5 -5 9 -13 9 -7 0 -19 8 -24 18 -6 9 -11 13 -11 8 0
-5 -16 9 -35 30 -19 21 -35 35 -35 31 0 -4 -10 3 -22 16 -13 12 -22 25 -20 30
1 4 -10 7 -24 7 -14 0 -23 4 -19 10 3 6 -1 10 -9 10 -8 0 -20 9 -26 20 -7 12
-21 20 -38 20 -19 0 -23 3 -13 9 11 7 9 10 -8 16 -11 3 -21 11 -21 17 0 5 -7
7 -16 4 -8 -3 -13 -2 -9 3 3 5 -8 15 -25 23 -16 7 -30 17 -30 21 0 5 -4 6 -9
3 -5 -3 -12 1 -15 10 -3 8 -10 13 -15 10 -5 -3 -14 1 -21 9 -7 8 -21 15 -31
15 -11 0 -19 3 -19 8 0 4 -15 14 -32 21 -18 8 -39 22 -46 30 -8 9 -11 11 -8 4
5 -8 0 -8 -19 0 -14 7 -25 16 -25 20 0 5 -4 5 -10 2 -5 -3 -10 -1 -10 4 0 6
-7 11 -15 11 -9 0 -34 9 -56 21 -22 11 -46 18 -52 16 -6 -2 -20 4 -30 14 -11
10 -25 15 -33 12 -8 -3 -14 -1 -14 5 0 5 -7 13 -16 16 -10 4 -13 2 -8 -7 5 -8
2 -7 -9 2 -9 7 -17 10 -17 5 0 -5 -4 -3 -9 5 -5 7 -19 15 -32 16 -38 4 -40 5
-36 13 3 4 -11 7 -31 7 -21 -1 -42 4 -49 11 -6 6 -24 10 -38 9 -14 -2 -28 2
-31 9 -3 7 -26 12 -63 11 -33 0 -59 2 -59 5 1 18 -4 21 -19 9 -12 -10 -15 -10
-9 -1 6 10 -1 12 -28 9 -20 -3 -39 0 -43 6 -4 6 -1 7 8 2 8 -5 11 -5 7 0 -4 4
-37 9 -74 11 -36 1 -68 5 -71 8 -3 3 -14 1 -23 -4 -13 -7 -21 -5 -30 5 -11 14
-15 14 -30 0 -16 -14 -55 -11 -46 4 2 3 -43 6 -100 6 -71 0 -103 -3 -100 -11z
m-1144 -4568 c0 -3 -4 -8 -10 -11 -5 -3 -10 -1 -10 4 0 6 5 11 10 11 6 0 10
-2 10 -4z"/>
<path d="M2670 5030 c0 -5 5 -10 11 -10 5 0 7 5 4 10 -3 6 -8 10 -11 10 -2 0
-4 -4 -4 -10z"/>
</g>
</svg>
